<svg xmlns="http://www.w3.org/2000/svg" xmlns:xlink="http://www.w3.org/1999/xlink" xmlns:lucid="lucid" width="1240" height="330"><g transform="translate(-320 -190)" lucid:page-tab-id="0_0"><path d="M340 220h280v100H340z" stroke="#000" stroke-width="2" fill="url(#a)"/><path d="M368 220v100m224-100v100" stroke="#000" stroke-width="2" fill="none"/><use xlink:href="#b" transform="matrix(1,0,0,1,380,225) translate(10.913802962962976 25.088853333333326)"/><use xlink:href="#c" transform="matrix(1,0,0,1,380,225) translate(140.88878666666665 25.088853333333326)"/><use xlink:href="#d" transform="matrix(1,0,0,1,380,225) translate(162.5183622222222 25.088853333333326)"/><use xlink:href="#e" transform="matrix(1,0,0,1,380,225) translate(33.4322651851852 46.42218666666666)"/><use xlink:href="#f" transform="matrix(1,0,0,1,380,225) translate(117.2345248148148 46.42218666666666)"/><use xlink:href="#g" transform="matrix(1,0,0,1,380,225) translate(100 70.6)"/><path d="M660 220h280v100H660z" stroke="#000" stroke-width="2" fill="url(#h)"/><path d="M688 220v100m224-100v100" stroke="#000" stroke-width="2" fill="none"/><use xlink:href="#i" transform="matrix(1,0,0,1,700,225) translate(63.50626407407408 48.555546666666665)"/><path d="M980 210h160v120c-26.72-20.04-43.36-20.04-53.44-20.04-16 0-37.28 20.04-53.28 20.04-9.92 0-26.72 0-53.28-20.04z" stroke="#000" stroke-width="2" fill="url(#j)"/><use xlink:href="#k" transform="matrix(1,0,0,1,985,215) translate(23.074999999999996 48.6)"/><use xlink:href="#l" transform="matrix(1,0,0,1,985,215) translate(88.975 48.6)"/><path d="M1180 210h160v120h-160z" stroke="#000" stroke-width="2" fill="#ef8d22"/><use xlink:href="#m" transform="matrix(1,0,0,1,1185,215) translate(32.099999999999994 58.6)"/><path d="M1380 380h160v120h-160z" stroke="#000" stroke-width="2" fill="#ef8d22"/><path d="M1396 380v120m128-120v120" stroke="#000" stroke-width="2" fill="none"/><use xlink:href="#n" transform="matrix(1,0,0,1,1405,385) translate(21.574999999999996 47.8)"/><use xlink:href="#o" transform="matrix(1,0,0,1,1405,385) translate(12.649999999999991 69.4)"/><path d="M1341 270h119v90.76" stroke="#000" stroke-width="2" fill="none"/><path d="M1341 271h-1v-2h1zM1460 375.76l-4.64-14.26h9.28z"/><path d="M1460 379l-6-18.5h12zm-3.26-16.5l3.26 10.03 3.26-10.03z"/><path d="M621 270h19.76" stroke="#000" stroke-width="2" fill="none"/><path d="M621 271h-1v-2h1zM655.76 270l-14.26 4.64v-9.28z"/><path d="M659 270l-18.5 6v-12zm-16.5 3.26l10.03-3.26-10.03-3.26z"/><path d="M941 270h19.76" stroke="#000" stroke-width="2" fill="none"/><path d="M941 271h-1v-2h1zM975.76 270l-14.26 4.64v-9.28z"/><path d="M979 270l-18.5 6v-12zm-16.5 3.26l10.03-3.26-10.03-3.26z"/><path d="M1141 270h19.76" stroke="#000" stroke-width="2" fill="none"/><path d="M1141 271h-1v-2h1zM1175.76 270l-14.26 4.64v-9.28z"/><path d="M1179 270l-18.5 6v-12zm-16.5 3.26l10.03-3.26-10.03-3.26z"/><path d="M340 360h252l28 28v112H340z" stroke="#d9be60" stroke-width="2" fill="#ffdf71"/><path d="M592 360v28h28" fill="#d9be60"/><use xlink:href="#p" transform="matrix(1,0,0,1,345,365) translate(0 14.4)"/><use xlink:href="#q" transform="matrix(1,0,0,1,345,365) translate(10.95 14.4)"/><use xlink:href="#r" transform="matrix(1,0,0,1,345,365) translate(111.85000000000001 14.4)"/><use xlink:href="#p" transform="matrix(1,0,0,1,345,365) translate(0 36)"/><use xlink:href="#s" transform="matrix(1,0,0,1,345,365) translate(10.95 36)"/><use xlink:href="#t" transform="matrix(1,0,0,1,345,365) translate(65.85000000000001 36)"/><use xlink:href="#p" transform="matrix(1,0,0,1,345,365) translate(0 57.6)"/><use xlink:href="#u" transform="matrix(1,0,0,1,345,365) translate(10.95 57.6)"/><use xlink:href="#v" transform="matrix(1,0,0,1,345,365) translate(39.95 57.6)"/><use xlink:href="#w" transform="matrix(1,0,0,1,345,365) translate(59.95 57.6)"/><use xlink:href="#x" transform="matrix(1,0,0,1,345,365) translate(119.85000000000001 57.6)"/><use xlink:href="#p" transform="matrix(1,0,0,1,345,365) translate(0 79.20000000000002)"/><use xlink:href="#y" transform="matrix(1,0,0,1,345,365) translate(10.95 79.20000000000002)"/><use xlink:href="#z" transform="matrix(1,0,0,1,345,365) translate(88.9 79.20000000000002)"/><use xlink:href="#p" transform="matrix(1,0,0,1,345,365) translate(0 100.80000000000001)"/><use xlink:href="#A" transform="matrix(1,0,0,1,345,365) translate(10.95 100.80000000000001)"/><use xlink:href="#B" transform="matrix(1,0,0,1,345,365) translate(60.900000000000006 100.80000000000001)"/><use xlink:href="#C" transform="matrix(1,0,0,1,345,365) translate(129.8 100.80000000000001)"/><path d="M480 321v38" fill="none"/><path d="M480 321v2.1m0 8.46v4.22m0 8.44v4.22m0 8.45v2.1" stroke="#000" stroke-width="2" fill="none"/><path d="M481 321h-2v-1h2zM481 360h-2v-1h2z"/><path d="M660 360h252l28 28v112H660z" stroke="#d9be60" stroke-width="2" fill="#ffdf71"/><path d="M912 360v28h28" fill="#d9be60"/><g><use xlink:href="#p" transform="matrix(1,0,0,1,665,365) translate(0 14.4)"/><use xlink:href="#D" transform="matrix(1,0,0,1,665,365) translate(10.95 14.4)"/><use xlink:href="#E" transform="matrix(1,0,0,1,665,365) translate(132.75 14.4)"/><use xlink:href="#p" transform="matrix(1,0,0,1,665,365) translate(0 36)"/><use xlink:href="#F" transform="matrix(1,0,0,1,665,365) translate(10.95 36)"/><use xlink:href="#G" transform="matrix(1,0,0,1,665,365) translate(78.85000000000001 36)"/><use xlink:href="#p" transform="matrix(1,0,0,1,665,365) translate(0 57.6)"/><use xlink:href="#H" transform="matrix(1,0,0,1,665,365) translate(10.95 57.6)"/><use xlink:href="#I" transform="matrix(1,0,0,1,665,365) translate(59.900000000000006 57.6)"/><use xlink:href="#J" transform="matrix(1,0,0,1,665,365) translate(76.9 57.6)"/><use xlink:href="#K" transform="matrix(1,0,0,1,665,365) translate(168.75 57.6)"/><use xlink:href="#p" transform="matrix(1,0,0,1,665,365) translate(0 79.20000000000002)"/><use xlink:href="#L" transform="matrix(1,0,0,1,665,365) translate(10.95 79.20000000000002)"/><use xlink:href="#M" transform="matrix(1,0,0,1,665,365) translate(88.45 79.20000000000002)"/><use xlink:href="#p" transform="matrix(1,0,0,1,665,365) translate(0 100.80000000000001)"/><use xlink:href="#A" transform="matrix(1,0,0,1,665,365) translate(10.95 100.80000000000001)"/><use xlink:href="#N" transform="matrix(1,0,0,1,665,365) translate(60.900000000000006 100.80000000000001)"/><use xlink:href="#O" transform="matrix(1,0,0,1,665,365) translate(156.75 100.80000000000001)"/><use xlink:href="#P" transform="matrix(1,0,0,1,665,365) translate(0 122.4)"/></g><path d="M800 321v38" fill="none"/><path d="M800 321v2.1m0 8.46v4.22m0 8.44v4.22m0 8.45v2.1" stroke="#000" stroke-width="2" fill="none"/><path d="M801 321h-2v-1h2zM801 360h-2v-1h2z"/><path d="M1180 380h160v120h-160z" stroke="#000" stroke-width="2" fill="#ef8d22"/><path d="M1196 380v120m128-120v120" stroke="#000" stroke-width="2" fill="none"/><g><use xlink:href="#Q" transform="matrix(1,0,0,1,1205,385) translate(13.574999999999996 58.6)"/></g><path d="M1379 440h-19.76" stroke="#000" stroke-width="2" fill="none"/><path d="M1380 441h-1v-2h1zM1358.5 444.64l-14.26-4.64 14.26-4.64z"/><path d="M1359.5 446l-18.5-6 18.5-6zm-12.03-6l10.03 3.26v-6.52z"/><path d="M1260 379v-29.76" stroke="#000" stroke-width="2" fill="none"/><path d="M1261 380h-2v-1h2zM1264.64 348.5h-9.28l4.64-14.26z"/><path d="M1266 349.5h-12l6-18.5zm-9.26-2h6.52l-3.26-10.03z"/><defs><linearGradient gradientUnits="userSpaceOnUse" id="a" x1="340" y1="220" x2="340" y2="320"><stop offset="0%" stop-color="#a4d47c"/><stop offset="48.88%" stop-color="#7ab648"/><stop offset="100%" stop-color="#5b8936"/></linearGradient><path fill="#fff" d="M238-95c0 69-44 99-111 99C63 4 22-25 22-93v-155h51v151c-1 38 19 59 55 60 90 1 49-130 58-211h52v153" id="R"/><path fill="#fff" d="M135-194c87-1 58 113 63 194h-50c-7-57 23-157-34-157-59 0-34 97-39 157H25l-1-190h47c2 12-1 28 3 38 12-26 28-41 61-42" id="S"/><path fill="#fff" d="M88-194c31-1 46 15 58 34l-1-101h50l1 261h-48c-2-10 0-23-3-31C134-8 116 4 84 4 32 4 16-41 15-95c0-56 19-97 73-99zm17 164c33 0 40-30 41-66 1-37-9-64-41-64s-38 30-39 65c0 43 13 65 39 65" id="T"/><path fill="#fff" d="M185-48c-13 30-37 53-82 52C43 2 14-33 14-96s30-98 90-98c62 0 83 45 84 108H66c0 31 8 55 39 56 18 0 30-7 34-22zm-45-69c5-46-57-63-70-21-2 6-4 13-4 21h74" id="U"/><path fill="#fff" d="M135-150c-39-12-60 13-60 57V0H25l-1-190h47c2 13-1 29 3 40 6-28 27-53 61-41v41" id="V"/><path fill="#fff" d="M137-138c1-29-70-34-71-4 15 46 118 7 119 86 1 83-164 76-172 9l43-7c4 19 20 25 44 25 33 8 57-30 24-41C81-84 22-81 20-136c-2-80 154-74 161-7" id="W"/><path fill="#fff" d="M115-3C79 11 28 4 28-45v-112H4v-33h27l15-45h31v45h36v33H77v99c-1 23 16 31 38 25v30" id="X"/><path fill="#fff" d="M133-34C117-15 103 5 69 4 32 3 11-16 11-54c-1-60 55-63 116-61 1-26-3-47-28-47-18 1-26 9-28 27l-52-2c7-38 36-58 82-57s74 22 75 68l1 82c-1 14 12 18 25 15v27c-30 8-71 5-69-32zm-48 3c29 0 43-24 42-57-32 0-66-3-65 30 0 17 8 27 23 27" id="Y"/><path fill="#fff" d="M25-224v-37h50v37H25zM25 0v-190h50V0H25" id="Z"/><path fill="#fff" d="M195-6C206 82 75 100 31 46c-4-6-6-13-8-21l49-6c3 16 16 24 34 25 40 0 42-37 40-79-11 22-30 35-61 35-53 0-70-43-70-97 0-56 18-96 73-97 30 0 46 14 59 34l2-30h47zm-90-29c32 0 41-27 41-63 0-35-9-62-40-62-32 0-39 29-40 63 0 36 9 62 39 62" id="aa"/><g id="b"><use transform="matrix(0.04938259259259258,0,0,0.04938259259259258,0,0)" xlink:href="#R"/><use transform="matrix(0.04938259259259258,0,0,0.04938259259259258,12.790091481481479,0)" xlink:href="#S"/><use transform="matrix(0.04938259259259258,0,0,0.04938259259259258,23.604879259259256,0)" xlink:href="#T"/><use transform="matrix(0.04938259259259258,0,0,0.04938259259259258,34.41966703703703,0)" xlink:href="#U"/><use transform="matrix(0.04938259259259258,0,0,0.04938259259259258,44.296185555555546,0)" xlink:href="#V"/><use transform="matrix(0.04938259259259258,0,0,0.04938259259259258,51.20974851851851,0)" xlink:href="#W"/><use transform="matrix(0.04938259259259258,0,0,0.04938259259259258,61.086267037037025,0)" xlink:href="#X"/><use transform="matrix(0.04938259259259258,0,0,0.04938259259259258,66.96279555555554,0)" xlink:href="#Y"/><use transform="matrix(0.04938259259259258,0,0,0.04938259259259258,76.83931407407405,0)" xlink:href="#S"/><use transform="matrix(0.04938259259259258,0,0,0.04938259259259258,87.65410185185183,0)" xlink:href="#T"/><use transform="matrix(0.04938259259259258,0,0,0.04938259259259258,98.46888962962962,0)" xlink:href="#Z"/><use transform="matrix(0.04938259259259258,0,0,0.04938259259259258,103.40714888888887,0)" xlink:href="#S"/><use transform="matrix(0.04938259259259258,0,0,0.04938259259259258,114.22193666666664,0)" xlink:href="#aa"/></g><path fill="#fff" d="M110-194c64 0 96 36 96 99 0 64-35 99-97 99-61 0-95-36-95-99 0-62 34-99 96-99zm-1 164c35 0 45-28 45-65 0-40-10-65-43-65-34 0-45 26-45 65 0 36 10 65 43 65" id="ab"/><path fill="#fff" d="M121-226c-27-7-43 5-38 36h38v33H83V0H34v-157H6v-33h28c-9-59 32-81 87-68v32" id="ac"/><g id="c"><use transform="matrix(0.04938259259259258,0,0,0.04938259259259258,0,0)" xlink:href="#ab"/><use transform="matrix(0.04938259259259258,0,0,0.04938259259259258,10.814787777777775,0)" xlink:href="#ac"/></g><path fill="#fff" d="M114-157C55-157 80-60 75 0H25v-261h50l-1 109c12-26 28-41 61-42 86-1 58 113 63 194h-50c-7-57 23-157-34-157" id="ad"/><g id="d"><use transform="matrix(0.04938259259259258,0,0,0.04938259259259258,0,0)" xlink:href="#X"/><use transform="matrix(0.04938259259259258,0,0,0.04938259259259258,5.876528518518517,0)" xlink:href="#ad"/><use transform="matrix(0.04938259259259258,0,0,0.04938259259259258,16.691316296296293,0)" xlink:href="#U"/></g><path fill="#fff" d="M182-130c37 4 62 22 62 59C244 23 116-4 24 0v-248c84 5 203-23 205 63 0 31-19 50-47 55zM76-148c40-3 101 13 101-30 0-44-60-28-101-31v61zm0 110c48-3 116 14 116-37 0-48-69-32-116-35v72" id="ae"/><path fill="#fff" d="M85 4C-2 5 27-109 22-190h50c7 57-23 150 33 157 60-5 35-97 40-157h50l1 190h-47c-2-12 1-28-3-38-12 25-28 42-61 42" id="af"/><g id="e"><use transform="matrix(0.04938259259259258,0,0,0.04938259259259258,0,0)" xlink:href="#ae"/><use transform="matrix(0.04938259259259258,0,0,0.04938259259259258,12.790091481481479,0)" xlink:href="#af"/><use transform="matrix(0.04938259259259258,0,0,0.04938259259259258,23.604879259259256,0)" xlink:href="#W"/><use transform="matrix(0.04938259259259258,0,0,0.04938259259259258,33.48139777777777,0)" xlink:href="#Z"/><use transform="matrix(0.04938259259259258,0,0,0.04938259259259258,38.41965703703703,0)" xlink:href="#S"/><use transform="matrix(0.04938259259259258,0,0,0.04938259259259258,49.2344448148148,0)" xlink:href="#U"/><use transform="matrix(0.04938259259259258,0,0,0.04938259259259258,59.11096333333332,0)" xlink:href="#W"/><use transform="matrix(0.04938259259259258,0,0,0.04938259259259258,68.98748185185184,0)" xlink:href="#W"/></g><path fill="#fff" d="M67-125c0 54 23 88 75 88 28 0 53-7 68-21v-34h-60v-39h108v91C232-14 192 4 140 4 58 4 20-42 15-125 8-236 126-280 215-234c19 10 29 26 37 47l-47 15c-11-23-29-39-63-39-53 1-75 33-75 86" id="ag"/><path fill="#fff" d="M25 0v-261h50V0H25" id="ah"/><g id="f"><use transform="matrix(0.04938259259259258,0,0,0.04938259259259258,0,0)" xlink:href="#ag"/><use transform="matrix(0.04938259259259258,0,0,0.04938259259259258,13.827125925925923,0)" xlink:href="#ab"/><use transform="matrix(0.04938259259259258,0,0,0.04938259259259258,24.6419137037037,0)" xlink:href="#Y"/><use transform="matrix(0.04938259259259258,0,0,0.04938259259259258,34.518432222222216,0)" xlink:href="#ah"/><use transform="matrix(0.04938259259259258,0,0,0.04938259259259258,39.45669148148147,0)" xlink:href="#W"/></g><linearGradient gradientUnits="userSpaceOnUse" id="h" x1="660" y1="220" x2="660" y2="320"><stop offset="0%" stop-color="#a4d47c"/><stop offset="48.88%" stop-color="#7ab648"/><stop offset="100%" stop-color="#5b8936"/></linearGradient><path fill="#fff" d="M199 0l-22-63H83L61 0H9l90-248h61L250 0h-51zm-33-102l-36-108c-10 38-24 72-36 108h72" id="ai"/><path fill="#fff" d="M123 10C108 53 80 86 19 72V37c35 8 53-11 59-39L3-190h52l48 148c12-52 28-100 44-148h51" id="aj"/><g id="i"><use transform="matrix(0.04938259259259258,0,0,0.04938259259259258,0,0)" xlink:href="#ai"/><use transform="matrix(0.04938259259259258,0,0,0.04938259259259258,12.790091481481479,0)" xlink:href="#S"/><use transform="matrix(0.04938259259259258,0,0,0.04938259259259258,23.604879259259256,0)" xlink:href="#Y"/><use transform="matrix(0.04938259259259258,0,0,0.04938259259259258,33.48139777777777,0)" xlink:href="#ah"/><use transform="matrix(0.04938259259259258,0,0,0.04938259259259258,38.41965703703703,0)" xlink:href="#aj"/><use transform="matrix(0.04938259259259258,0,0,0.04938259259259258,48.29617555555554,0)" xlink:href="#W"/><use transform="matrix(0.04938259259259258,0,0,0.04938259259259258,58.17269407407406,0)" xlink:href="#Z"/><use transform="matrix(0.04938259259259258,0,0,0.04938259259259258,63.110953333333306,0)" xlink:href="#W"/></g><linearGradient gradientUnits="userSpaceOnUse" id="j" x1="980" y1="210" x2="980" y2="330"><stop offset="0%" stop-color="#0fabff"/><stop offset="48.33%" stop-color="#0c7cba"/><stop offset="100%" stop-color="#085077"/></linearGradient><path fill="#fff" d="M24-248c93 1 206-16 204 79-1 75-69 88-152 82V0H24v-248zm52 121c47 0 100 7 100-41 0-47-54-39-100-39v80" id="ak"/><path fill="#fff" d="M25-224v-37h50v37H25zM75 22c2 45-34 59-81 51V38c22 5 31-5 31-27v-201h50V22" id="al"/><path fill="#fff" d="M190-63c-7 42-38 67-86 67-59 0-84-38-90-98-12-110 154-137 174-36l-49 2c-2-19-15-32-35-32-30 0-35 28-38 64-6 74 65 87 74 30" id="am"/><g id="k"><use transform="matrix(0.05,0,0,0.05,0,0)" xlink:href="#ak"/><use transform="matrix(0.05,0,0,0.05,12,0)" xlink:href="#V"/><use transform="matrix(0.05,0,0,0.05,19,0)" xlink:href="#ab"/><use transform="matrix(0.05,0,0,0.05,29.950000000000003,0)" xlink:href="#al"/><use transform="matrix(0.05,0,0,0.05,34.95,0)" xlink:href="#U"/><use transform="matrix(0.05,0,0,0.05,44.95,0)" xlink:href="#am"/><use transform="matrix(0.05,0,0,0.05,54.95,0)" xlink:href="#X"/></g><g id="l"><use transform="matrix(0.05,0,0,0.05,0,0)" xlink:href="#ak"/><use transform="matrix(0.05,0,0,0.05,12,0)" xlink:href="#ah"/><use transform="matrix(0.05,0,0,0.05,17,0)" xlink:href="#Y"/><use transform="matrix(0.05,0,0,0.05,27,0)" xlink:href="#S"/></g><path fill="#fff" d="M24 0v-248h195v40H76v63h132v40H76v65h150V0H24" id="an"/><path fill="#fff" d="M144 0l-44-69L55 0H2l70-98-66-92h53l41 62 40-62h54l-67 91 71 99h-54" id="ao"/><g id="m"><use transform="matrix(0.05,0,0,0.05,0,0)" xlink:href="#an"/><use transform="matrix(0.05,0,0,0.05,12,0)" xlink:href="#ao"/><use transform="matrix(0.05,0,0,0.05,22,0)" xlink:href="#U"/><use transform="matrix(0.05,0,0,0.05,32,0)" xlink:href="#am"/><use transform="matrix(0.05,0,0,0.05,42,0)" xlink:href="#af"/><use transform="matrix(0.05,0,0,0.05,52.95,0)" xlink:href="#X"/><use transform="matrix(0.05,0,0,0.05,58.900000000000006,0)" xlink:href="#Z"/><use transform="matrix(0.05,0,0,0.05,63.900000000000006,0)" xlink:href="#ab"/><use transform="matrix(0.05,0,0,0.05,74.85000000000001,0)" xlink:href="#S"/></g><path fill="#fff" d="M240-174c0 40-23 61-54 70L253 0h-59l-57-94H76V0H24v-248c93 4 217-23 216 74zM76-134c48-2 112 12 112-38 0-48-66-32-112-35v73" id="ap"/><g id="n"><use transform="matrix(0.05,0,0,0.05,0,0)" xlink:href="#ap"/><use transform="matrix(0.05,0,0,0.05,12.950000000000001,0)" xlink:href="#U"/><use transform="matrix(0.05,0,0,0.05,22.950000000000003,0)" xlink:href="#aa"/><use transform="matrix(0.05,0,0,0.05,33.900000000000006,0)" xlink:href="#af"/><use transform="matrix(0.05,0,0,0.05,44.85000000000001,0)" xlink:href="#ah"/><use transform="matrix(0.05,0,0,0.05,49.85000000000001,0)" xlink:href="#Y"/><use transform="matrix(0.05,0,0,0.05,59.85,0)" xlink:href="#V"/></g><path fill="#fff" d="M135-194c53 0 70 44 70 98 0 56-19 98-73 100-31 1-45-17-59-34 3 33 2 69 2 105H25l-1-265h48c2 10 0 23 3 31 11-24 29-35 60-35zM114-30c33 0 39-31 40-66 0-38-9-64-40-64-56 0-55 130 0 130" id="aq"/><g id="o"><use transform="matrix(0.05,0,0,0.05,0,0)" xlink:href="#ap"/><use transform="matrix(0.05,0,0,0.05,12.950000000000001,0)" xlink:href="#U"/><use transform="matrix(0.05,0,0,0.05,22.950000000000003,0)" xlink:href="#aq"/><use transform="matrix(0.05,0,0,0.05,33.900000000000006,0)" xlink:href="#ab"/><use transform="matrix(0.05,0,0,0.05,44.85000000000001,0)" xlink:href="#V"/><use transform="matrix(0.05,0,0,0.05,51.85,0)" xlink:href="#X"/><use transform="matrix(0.05,0,0,0.05,57.80000000000001,0)" xlink:href="#Z"/><use transform="matrix(0.05,0,0,0.05,62.80000000000001,0)" xlink:href="#S"/><use transform="matrix(0.05,0,0,0.05,73.75000000000001,0)" xlink:href="#aa"/></g><path fill="#333" d="M16-82v-28h88v28H16" id="ar"/><use transform="matrix(0.05,0,0,0.05,0,0)" xlink:href="#ar" id="p"/><path fill="#333" d="M185-189c-5-48-123-54-124 2 14 75 158 14 163 119 3 78-121 87-175 55-17-10-28-26-33-46l33-7c5 56 141 63 141-1 0-78-155-14-162-118-5-82 145-84 179-34 5 7 8 16 11 25" id="as"/><path fill="#333" d="M59-47c-2 24 18 29 38 22v24C64 9 27 4 27-40v-127H5v-23h24l9-43h21v43h35v23H59v120" id="at"/><path fill="#333" d="M141-36C126-15 110 5 73 4 37 3 15-17 15-53c-1-64 63-63 125-63 3-35-9-54-41-54-24 1-41 7-42 31l-33-3c5-37 33-52 76-52 45 0 72 20 72 64v82c-1 20 7 32 28 27v20c-31 9-61-2-59-35zM48-53c0 20 12 33 32 33 41-3 63-29 60-74-43 2-92-5-92 41" id="au"/><path fill="#333" d="M143 0L79-87 56-68V0H24v-261h32v163l83-92h37l-77 82L181 0h-38" id="av"/><path fill="#333" d="M100-194c63 0 86 42 84 106H49c0 40 14 67 53 68 26 1 43-12 49-29l28 8c-11 28-37 45-77 45C44 4 14-33 15-96c1-61 26-98 85-98zm52 81c6-60-76-77-97-28-3 7-6 17-6 28h103" id="aw"/><path fill="#333" d="M106-169C34-169 62-67 57 0H25v-261h32l-1 103c12-21 28-36 61-36 89 0 53 116 60 194h-32v-121c2-32-8-49-39-48" id="ax"/><path fill="#333" d="M100-194c62-1 85 37 85 99 1 63-27 99-86 99S16-35 15-95c0-66 28-99 85-99zM99-20c44 1 53-31 53-75 0-43-8-75-51-75s-53 32-53 75 10 74 51 75" id="ay"/><path fill="#333" d="M24 0v-261h32V0H24" id="az"/><path fill="#333" d="M85-194c31 0 48 13 60 33l-1-100h32l1 261h-30c-2-10 0-23-3-31C134-8 116 4 85 4 32 4 16-35 15-94c0-66 23-100 70-100zm9 24c-40 0-46 34-46 75 0 40 6 74 45 74 42 0 51-32 51-76 0-42-9-74-50-73" id="aA"/><path fill="#333" d="M114-163C36-179 61-72 57 0H25l-1-190h30c1 12-1 29 2 39 6-27 23-49 58-41v29" id="aB"/><g id="q"><use transform="matrix(0.05,0,0,0.05,0,0)" xlink:href="#as"/><use transform="matrix(0.05,0,0,0.05,12,0)" xlink:href="#at"/><use transform="matrix(0.05,0,0,0.05,17,0)" xlink:href="#au"/><use transform="matrix(0.05,0,0,0.05,27,0)" xlink:href="#av"/><use transform="matrix(0.05,0,0,0.05,36,0)" xlink:href="#aw"/><use transform="matrix(0.05,0,0,0.05,46,0)" xlink:href="#ax"/><use transform="matrix(0.05,0,0,0.05,56,0)" xlink:href="#ay"/><use transform="matrix(0.05,0,0,0.05,66,0)" xlink:href="#az"/><use transform="matrix(0.05,0,0,0.05,69.95,0)" xlink:href="#aA"/><use transform="matrix(0.05,0,0,0.05,79.95,0)" xlink:href="#aw"/><use transform="matrix(0.05,0,0,0.05,89.95,0)" xlink:href="#aB"/></g><path fill="#333" d="M210-169c-67 3-38 105-44 169h-31v-121c0-29-5-50-35-48C34-165 62-65 56 0H25l-1-190h30c1 10-1 24 2 32 10-44 99-50 107 0 11-21 27-35 58-36 85-2 47 119 55 194h-31v-121c0-29-5-49-35-48" id="aC"/><path fill="#333" d="M24-231v-30h32v30H24zM24 0v-190h32V0H24" id="aD"/><path fill="#333" d="M108 0H70L1-190h34L89-25l56-165h34" id="aE"/><path fill="#333" d="M117-194c89-4 53 116 60 194h-32v-121c0-31-8-49-39-48C34-167 62-67 57 0H25l-1-190h30c1 10-1 24 2 32 11-22 29-35 61-36" id="aF"/><path fill="#333" d="M135-143c-3-34-86-38-87 0 15 53 115 12 119 90S17 21 10-45l28-5c4 36 97 45 98 0-10-56-113-15-118-90-4-57 82-63 122-42 12 7 21 19 24 35" id="aG"/><g id="r"><use transform="matrix(0.05,0,0,0.05,0,0)" xlink:href="#aC"/><use transform="matrix(0.05,0,0,0.05,14.950000000000001,0)" xlink:href="#ay"/><use transform="matrix(0.05,0,0,0.05,24.950000000000003,0)" xlink:href="#at"/><use transform="matrix(0.05,0,0,0.05,29.950000000000003,0)" xlink:href="#aD"/><use transform="matrix(0.05,0,0,0.05,33.900000000000006,0)" xlink:href="#aE"/><use transform="matrix(0.05,0,0,0.05,42.900000000000006,0)" xlink:href="#au"/><use transform="matrix(0.05,0,0,0.05,52.900000000000006,0)" xlink:href="#at"/><use transform="matrix(0.05,0,0,0.05,57.900000000000006,0)" xlink:href="#aD"/><use transform="matrix(0.05,0,0,0.05,61.85,0)" xlink:href="#ay"/><use transform="matrix(0.05,0,0,0.05,71.85000000000001,0)" xlink:href="#aF"/><use transform="matrix(0.05,0,0,0.05,81.85000000000001,0)" xlink:href="#aG"/></g><path fill="#333" d="M127-220V0H93v-220H8v-28h204v28h-85" id="aH"/><path fill="#333" d="M177-190C167-65 218 103 67 71c-23-6-38-20-44-43l32-5c15 47 100 32 89-28v-30C133-14 115 1 83 1 29 1 15-40 15-95c0-56 16-97 71-98 29-1 48 16 59 35 1-10 0-23 2-32h30zM94-22c36 0 50-32 50-73 0-42-14-75-50-75-39 0-46 34-46 75s6 73 46 73" id="aI"/><g id="s"><use transform="matrix(0.05,0,0,0.05,0,0)" xlink:href="#aH"/><use transform="matrix(0.05,0,0,0.05,8.950000000000001,0)" xlink:href="#au"/><use transform="matrix(0.05,0,0,0.05,18.950000000000003,0)" xlink:href="#aB"/><use transform="matrix(0.05,0,0,0.05,24.900000000000002,0)" xlink:href="#aI"/><use transform="matrix(0.05,0,0,0.05,34.900000000000006,0)" xlink:href="#aw"/><use transform="matrix(0.05,0,0,0.05,44.900000000000006,0)" xlink:href="#at"/></g><path fill="#333" d="M205 0l-28-72H64L36 0H1l101-248h38L239 0h-34zm-38-99l-47-123c-12 45-31 82-46 123h93" id="aJ"/><path fill="#333" d="M84 4C-5 8 30-112 23-190h32v120c0 31 7 50 39 49 72-2 45-101 50-169h31l1 190h-30c-1-10 1-25-2-33-11 22-28 36-60 37" id="aK"/><path fill="#333" d="M96-169c-40 0-48 33-48 73s9 75 48 75c24 0 41-14 43-38l32 2c-6 37-31 61-74 61-59 0-76-41-82-99-10-93 101-131 147-64 4 7 5 14 7 22l-32 3c-4-21-16-35-41-35" id="aL"/><g id="t"><use transform="matrix(0.05,0,0,0.05,0,0)" xlink:href="#aJ"/><use transform="matrix(0.05,0,0,0.05,12,0)" xlink:href="#aK"/><use transform="matrix(0.05,0,0,0.05,22,0)" xlink:href="#aA"/><use transform="matrix(0.05,0,0,0.05,32,0)" xlink:href="#aD"/><use transform="matrix(0.05,0,0,0.05,35.95,0)" xlink:href="#aw"/><use transform="matrix(0.05,0,0,0.05,45.95,0)" xlink:href="#aF"/><use transform="matrix(0.05,0,0,0.05,55.95,0)" xlink:href="#aL"/><use transform="matrix(0.05,0,0,0.05,64.95,0)" xlink:href="#aw"/></g><path fill="#333" d="M143 4C61 4 22-44 18-125c-5-107 100-154 193-111 17 8 29 25 37 43l-32 9c-13-25-37-40-76-40-61 0-88 39-88 99 0 61 29 100 91 101 35 0 62-11 79-27v-45h-74v-28h105v86C228-13 192 4 143 4" id="aM"/><g id="u"><use transform="matrix(0.05,0,0,0.05,0,0)" xlink:href="#aM"/><use transform="matrix(0.05,0,0,0.05,14,0)" xlink:href="#ay"/></g><g id="v"><use transform="matrix(0.05,0,0,0.05,0,0)" xlink:href="#at"/><use transform="matrix(0.05,0,0,0.05,5,0)" xlink:href="#ay"/></g><path fill="#333" d="M240 0l2-218c-23 76-54 145-80 218h-23L58-218 59 0H30v-248h44l77 211c21-75 51-140 76-211h43V0h-30" id="aN"/><g id="w"><use transform="matrix(0.05,0,0,0.05,0,0)" xlink:href="#aN"/><use transform="matrix(0.05,0,0,0.05,14.950000000000001,0)" xlink:href="#au"/><use transform="matrix(0.05,0,0,0.05,24.950000000000003,0)" xlink:href="#aB"/><use transform="matrix(0.05,0,0,0.05,30.900000000000002,0)" xlink:href="#av"/><use transform="matrix(0.05,0,0,0.05,39.900000000000006,0)" xlink:href="#aw"/><use transform="matrix(0.05,0,0,0.05,49.900000000000006,0)" xlink:href="#at"/></g><path fill="#333" d="M179-190L93 31C79 59 56 82 12 73V49c39 6 53-20 64-50L1-190h34L92-34l54-156h33" id="aO"/><g id="x"><use transform="matrix(0.05,0,0,0.05,0,0)" xlink:href="#as"/><use transform="matrix(0.05,0,0,0.05,12,0)" xlink:href="#at"/><use transform="matrix(0.05,0,0,0.05,17,0)" xlink:href="#aB"/><use transform="matrix(0.05,0,0,0.05,22.95,0)" xlink:href="#au"/><use transform="matrix(0.05,0,0,0.05,32.95,0)" xlink:href="#at"/><use transform="matrix(0.05,0,0,0.05,37.95,0)" xlink:href="#aw"/><use transform="matrix(0.05,0,0,0.05,47.95,0)" xlink:href="#aI"/><use transform="matrix(0.05,0,0,0.05,57.95,0)" xlink:href="#aO"/></g><path fill="#333" d="M160-131c35 5 61 23 61 61C221 17 115-2 30 0v-248c76 3 177-17 177 60 0 33-19 50-47 57zm-97-11c50-1 110 9 110-42 0-47-63-36-110-37v79zm0 115c55-2 124 14 124-45 0-56-70-42-124-44v89" id="aP"/><g id="y"><use transform="matrix(0.05,0,0,0.05,0,0)" xlink:href="#aP"/><use transform="matrix(0.05,0,0,0.05,12,0)" xlink:href="#aK"/><use transform="matrix(0.05,0,0,0.05,22,0)" xlink:href="#aG"/><use transform="matrix(0.05,0,0,0.05,31,0)" xlink:href="#aD"/><use transform="matrix(0.05,0,0,0.05,34.95,0)" xlink:href="#aF"/><use transform="matrix(0.05,0,0,0.05,44.95,0)" xlink:href="#aw"/><use transform="matrix(0.05,0,0,0.05,54.95,0)" xlink:href="#aG"/><use transform="matrix(0.05,0,0,0.05,63.95,0)" xlink:href="#aG"/></g><path fill="#333" d="M115-194c55 1 70 41 70 98S169 2 115 4C84 4 66-9 55-30l1 105H24l-1-265h31l2 30c10-21 28-34 59-34zm-8 174c40 0 45-34 45-75s-6-73-45-74c-42 0-51 32-51 76 0 43 10 73 51 73" id="aQ"/><g id="z"><use transform="matrix(0.05,0,0,0.05,0,0)" xlink:href="#aQ"/><use transform="matrix(0.05,0,0,0.05,10,0)" xlink:href="#az"/><use transform="matrix(0.05,0,0,0.05,13.949999999999998,0)" xlink:href="#au"/><use transform="matrix(0.05,0,0,0.05,23.95,0)" xlink:href="#aF"/></g><path fill="#333" d="M140-251c81 0 123 46 123 126C263-46 219 4 140 4 59 4 17-45 17-125s42-126 123-126zm0 227c63 0 89-41 89-101s-29-99-89-99c-61 0-89 39-89 99S79-25 140-24" id="aR"/><g id="A"><use transform="matrix(0.05,0,0,0.05,0,0)" xlink:href="#aR"/><use transform="matrix(0.05,0,0,0.05,14,0)" xlink:href="#at"/><use transform="matrix(0.05,0,0,0.05,19,0)" xlink:href="#ax"/><use transform="matrix(0.05,0,0,0.05,29,0)" xlink:href="#aw"/><use transform="matrix(0.05,0,0,0.05,39,0)" xlink:href="#aB"/></g><g id="B"><use transform="matrix(0.05,0,0,0.05,0,0)" xlink:href="#aB"/><use transform="matrix(0.05,0,0,0.05,5.95,0)" xlink:href="#aw"/><use transform="matrix(0.05,0,0,0.05,15.949999999999998,0)" xlink:href="#az"/><use transform="matrix(0.05,0,0,0.05,19.9,0)" xlink:href="#aw"/><use transform="matrix(0.05,0,0,0.05,29.899999999999995,0)" xlink:href="#aE"/><use transform="matrix(0.05,0,0,0.05,38.9,0)" xlink:href="#au"/><use transform="matrix(0.05,0,0,0.05,48.9,0)" xlink:href="#aF"/><use transform="matrix(0.05,0,0,0.05,58.900000000000006,0)" xlink:href="#at"/></g><path fill="#333" d="M101-234c-31-9-42 10-38 44h38v23H63V0H32v-167H5v-23h27c-7-52 17-82 69-68v24" id="aS"/><g id="C"><use transform="matrix(0.05,0,0,0.05,0,0)" xlink:href="#aS"/><use transform="matrix(0.05,0,0,0.05,5,0)" xlink:href="#au"/><use transform="matrix(0.05,0,0,0.05,15,0)" xlink:href="#aL"/><use transform="matrix(0.05,0,0,0.05,24,0)" xlink:href="#at"/><use transform="matrix(0.05,0,0,0.05,29,0)" xlink:href="#ay"/><use transform="matrix(0.05,0,0,0.05,39,0)" xlink:href="#aB"/><use transform="matrix(0.05,0,0,0.05,44.95,0)" xlink:href="#aG"/></g><path fill="#333" d="M233-177c-1 41-23 64-60 70L243 0h-38l-65-103H63V0H30v-248c88 3 205-21 203 71zM63-129c60-2 137 13 137-47 0-61-80-42-137-45v92" id="aT"/><path fill="#333" d="M145-31C134-9 116 4 85 4 32 4 16-35 15-94c0-59 17-99 70-100 32-1 48 14 60 33 0-11-1-24 2-32h30l-1 268h-32zM93-21c41 0 51-33 51-76s-8-73-50-73c-40 0-46 35-46 75s5 74 45 74" id="aU"/><path fill="#333" d="M68-38c1 34 0 65-14 84H32c9-13 17-26 17-46H33v-38h35" id="aV"/><g id="D"><use transform="matrix(0.05,0,0,0.05,0,0)" xlink:href="#aT"/><use transform="matrix(0.05,0,0,0.05,12.950000000000001,0)" xlink:href="#aw"/><use transform="matrix(0.05,0,0,0.05,22.950000000000003,0)" xlink:href="#aU"/><use transform="matrix(0.05,0,0,0.05,32.95,0)" xlink:href="#aK"/><use transform="matrix(0.05,0,0,0.05,42.95,0)" xlink:href="#aD"/><use transform="matrix(0.05,0,0,0.05,46.900000000000006,0)" xlink:href="#aB"/><use transform="matrix(0.05,0,0,0.05,52.85,0)" xlink:href="#aw"/><use transform="matrix(0.05,0,0,0.05,62.85,0)" xlink:href="#aC"/><use transform="matrix(0.05,0,0,0.05,77.80000000000001,0)" xlink:href="#aw"/><use transform="matrix(0.05,0,0,0.05,87.80000000000001,0)" xlink:href="#aF"/><use transform="matrix(0.05,0,0,0.05,97.80000000000001,0)" xlink:href="#at"/><use transform="matrix(0.05,0,0,0.05,102.80000000000001,0)" xlink:href="#aG"/><use transform="matrix(0.05,0,0,0.05,111.80000000000001,0)" xlink:href="#aV"/></g><g id="E"><use transform="matrix(0.05,0,0,0.05,0,0)" xlink:href="#aD"/><use transform="matrix(0.05,0,0,0.05,3.95,0)" xlink:href="#aA"/><use transform="matrix(0.05,0,0,0.05,13.949999999999998,0)" xlink:href="#aw"/><use transform="matrix(0.05,0,0,0.05,23.95,0)" xlink:href="#au"/><use transform="matrix(0.05,0,0,0.05,33.95,0)" xlink:href="#aG"/></g><path fill="#333" d="M30 0v-248h187v28H63v79h144v27H63v87h162V0H30" id="aW"/><path fill="#333" d="M141 0L90-78 38 0H4l68-98-65-92h35l48 74 47-74h35l-64 92 68 98h-35" id="aX"/><g id="F"><use transform="matrix(0.05,0,0,0.05,0,0)" xlink:href="#aW"/><use transform="matrix(0.05,0,0,0.05,12,0)" xlink:href="#aX"/><use transform="matrix(0.05,0,0,0.05,21,0)" xlink:href="#aD"/><use transform="matrix(0.05,0,0,0.05,24.95,0)" xlink:href="#aG"/><use transform="matrix(0.05,0,0,0.05,33.95,0)" xlink:href="#at"/><use transform="matrix(0.05,0,0,0.05,38.95,0)" xlink:href="#aD"/><use transform="matrix(0.05,0,0,0.05,42.900000000000006,0)" xlink:href="#aF"/><use transform="matrix(0.05,0,0,0.05,52.900000000000006,0)" xlink:href="#aI"/></g><g id="G"><use transform="matrix(0.05,0,0,0.05,0,0)" xlink:href="#aB"/><use transform="matrix(0.05,0,0,0.05,5.95,0)" xlink:href="#ay"/><use transform="matrix(0.05,0,0,0.05,15.949999999999998,0)" xlink:href="#au"/><use transform="matrix(0.05,0,0,0.05,25.950000000000003,0)" xlink:href="#aA"/><use transform="matrix(0.05,0,0,0.05,35.95,0)" xlink:href="#aC"/><use transform="matrix(0.05,0,0,0.05,50.900000000000006,0)" xlink:href="#au"/><use transform="matrix(0.05,0,0,0.05,60.900000000000006,0)" xlink:href="#aQ"/><use transform="matrix(0.05,0,0,0.05,70.9,0)" xlink:href="#aG"/></g><path fill="#333" d="M30 0v-248h33v221h125V0H30" id="aY"/><g id="H"><use transform="matrix(0.05,0,0,0.05,0,0)" xlink:href="#aY"/><use transform="matrix(0.05,0,0,0.05,10,0)" xlink:href="#aw"/><use transform="matrix(0.05,0,0,0.05,20,0)" xlink:href="#aI"/><use transform="matrix(0.05,0,0,0.05,30,0)" xlink:href="#au"/><use transform="matrix(0.05,0,0,0.05,40,0)" xlink:href="#az"/></g><path fill="#333" d="M234-2c-28 10-62 0-77-18C117 19 8 12 13-65c3-43 29-61 60-76-25-40-17-114 47-108 35 3 59 15 59 50 0 44-40 53-71 69 14 26 32 50 51 72 14-21 24-43 30-72l26 8c-9 33-21 57-38 82 13 13 33 22 57 15v23zM97-151c25-10 52-18 56-48-1-18-13-29-33-29-42 0-39 50-23 77zM42-66c-3 51 71 58 98 28-20-24-41-51-56-80-23 10-40 24-42 52" id="aZ"/><use transform="matrix(0.05,0,0,0.05,0,0)" xlink:href="#aZ" id="I"/><g id="J"><use transform="matrix(0.05,0,0,0.05,0,0)" xlink:href="#aT"/><use transform="matrix(0.05,0,0,0.05,12.950000000000001,0)" xlink:href="#aw"/><use transform="matrix(0.05,0,0,0.05,22.950000000000003,0)" xlink:href="#aI"/><use transform="matrix(0.05,0,0,0.05,32.95,0)" xlink:href="#aK"/><use transform="matrix(0.05,0,0,0.05,42.95,0)" xlink:href="#az"/><use transform="matrix(0.05,0,0,0.05,46.900000000000006,0)" xlink:href="#au"/><use transform="matrix(0.05,0,0,0.05,56.900000000000006,0)" xlink:href="#at"/><use transform="matrix(0.05,0,0,0.05,61.900000000000006,0)" xlink:href="#ay"/><use transform="matrix(0.05,0,0,0.05,71.9,0)" xlink:href="#aB"/><use transform="matrix(0.05,0,0,0.05,77.85000000000001,0)" xlink:href="#aO"/></g><g id="K"><use transform="matrix(0.05,0,0,0.05,0,0)" xlink:href="#aL"/><use transform="matrix(0.05,0,0,0.05,9,0)" xlink:href="#ay"/><use transform="matrix(0.05,0,0,0.05,19,0)" xlink:href="#aC"/><use transform="matrix(0.05,0,0,0.05,33.95,0)" xlink:href="#aQ"/><use transform="matrix(0.05,0,0,0.05,43.95,0)" xlink:href="#az"/><use transform="matrix(0.05,0,0,0.05,47.900000000000006,0)" xlink:href="#aD"/><use transform="matrix(0.05,0,0,0.05,51.85,0)" xlink:href="#au"/><use transform="matrix(0.05,0,0,0.05,61.85,0)" xlink:href="#aF"/><use transform="matrix(0.05,0,0,0.05,71.85000000000001,0)" xlink:href="#aL"/><use transform="matrix(0.05,0,0,0.05,80.85000000000001,0)" xlink:href="#aw"/></g><path fill="#333" d="M115-194c53 0 69 39 70 98 0 66-23 100-70 100C84 3 66-7 56-30L54 0H23l1-261h32v101c10-23 28-34 59-34zm-8 174c40 0 45-34 45-75 0-40-5-75-45-74-42 0-51 32-51 76 0 43 10 73 51 73" id="ba"/><g id="L"><use transform="matrix(0.05,0,0,0.05,0,0)" xlink:href="#aJ"/><use transform="matrix(0.05,0,0,0.05,11.65,0)" xlink:href="#aE"/><use transform="matrix(0.05,0,0,0.05,20.65,0)" xlink:href="#au"/><use transform="matrix(0.05,0,0,0.05,30.649999999999995,0)" xlink:href="#aD"/><use transform="matrix(0.05,0,0,0.05,34.6,0)" xlink:href="#az"/><use transform="matrix(0.05,0,0,0.05,38.550000000000004,0)" xlink:href="#au"/><use transform="matrix(0.05,0,0,0.05,48.550000000000004,0)" xlink:href="#ba"/><use transform="matrix(0.05,0,0,0.05,58.550000000000004,0)" xlink:href="#az"/><use transform="matrix(0.05,0,0,0.05,62.5,0)" xlink:href="#aw"/></g><g id="M"><use transform="matrix(0.05,0,0,0.05,0,0)" xlink:href="#aB"/><use transform="matrix(0.05,0,0,0.05,5.95,0)" xlink:href="#aw"/><use transform="matrix(0.05,0,0,0.05,15.949999999999998,0)" xlink:href="#aG"/><use transform="matrix(0.05,0,0,0.05,24.95,0)" xlink:href="#ay"/><use transform="matrix(0.05,0,0,0.05,34.95,0)" xlink:href="#aK"/><use transform="matrix(0.05,0,0,0.05,44.95,0)" xlink:href="#aB"/><use transform="matrix(0.05,0,0,0.05,50.900000000000006,0)" xlink:href="#aL"/><use transform="matrix(0.05,0,0,0.05,59.900000000000006,0)" xlink:href="#aw"/><use transform="matrix(0.05,0,0,0.05,69.9,0)" xlink:href="#aG"/></g><path fill="#333" d="M212-179c-10-28-35-45-73-45-59 0-87 40-87 99 0 60 29 101 89 101 43 0 62-24 78-52l27 14C228-24 195 4 139 4 59 4 22-46 18-125c-6-104 99-153 187-111 19 9 31 26 39 46" id="bb"/><g id="N"><use transform="matrix(0.05,0,0,0.05,0,0)" xlink:href="#bb"/><use transform="matrix(0.05,0,0,0.05,12.950000000000001,0)" xlink:href="#ay"/><use transform="matrix(0.05,0,0,0.05,22.950000000000003,0)" xlink:href="#aF"/><use transform="matrix(0.05,0,0,0.05,32.95,0)" xlink:href="#aG"/><use transform="matrix(0.05,0,0,0.05,41.95,0)" xlink:href="#at"/><use transform="matrix(0.05,0,0,0.05,46.95,0)" xlink:href="#aB"/><use transform="matrix(0.05,0,0,0.05,52.900000000000006,0)" xlink:href="#au"/><use transform="matrix(0.05,0,0,0.05,62.900000000000006,0)" xlink:href="#aD"/><use transform="matrix(0.05,0,0,0.05,66.85000000000001,0)" xlink:href="#aF"/><use transform="matrix(0.05,0,0,0.05,76.85000000000001,0)" xlink:href="#at"/><use transform="matrix(0.05,0,0,0.05,81.85000000000001,0)" xlink:href="#aG"/></g><g id="O"><use transform="matrix(0.05,0,0,0.05,0,0)" xlink:href="#ay"/><use transform="matrix(0.05,0,0,0.05,10,0)" xlink:href="#aB"/></g><path fill="#333" d="M30-248c87 1 191-15 191 75 0 78-77 80-158 76V0H30v-248zm33 125c57 0 124 11 124-50 0-59-68-47-124-48v98" id="bc"/><path fill="#333" d="M33 0v-38h34V0H33" id="bd"/><g id="P"><use transform="matrix(0.05,0,0,0.05,0,0)" xlink:href="#bc"/><use transform="matrix(0.05,0,0,0.05,12,0)" xlink:href="#aB"/><use transform="matrix(0.05,0,0,0.05,17.95,0)" xlink:href="#aw"/><use transform="matrix(0.05,0,0,0.05,27.950000000000003,0)" xlink:href="#aS"/><use transform="matrix(0.05,0,0,0.05,32.95,0)" xlink:href="#aw"/><use transform="matrix(0.05,0,0,0.05,42.95,0)" xlink:href="#aB"/><use transform="matrix(0.05,0,0,0.05,48.900000000000006,0)" xlink:href="#aw"/><use transform="matrix(0.05,0,0,0.05,58.900000000000006,0)" xlink:href="#aF"/><use transform="matrix(0.05,0,0,0.05,68.9,0)" xlink:href="#aL"/><use transform="matrix(0.05,0,0,0.05,77.9,0)" xlink:href="#aw"/><use transform="matrix(0.05,0,0,0.05,87.9,0)" xlink:href="#aG"/><use transform="matrix(0.05,0,0,0.05,96.9,0)" xlink:href="#bd"/></g><path fill="#fff" d="M76-208v77h127v40H76V0H24v-248h183v40H76" id="be"/><path fill="#fff" d="M135-194c52 0 70 43 70 98 0 56-19 99-73 100-30 1-46-15-58-35L72 0H24l1-261h50v104c11-23 29-37 60-37zM114-30c31 0 40-27 40-66 0-37-7-63-39-63s-41 28-41 65c0 36 8 64 40 64" id="bf"/><path fill="#fff" d="M147 0L96-86 75-71V0H25v-261h50v150l67-79h53l-66 74L201 0h-54" id="bg"/><g id="Q"><use transform="matrix(0.05,0,0,0.05,0,0)" xlink:href="#be"/><use transform="matrix(0.05,0,0,0.05,10.950000000000001,0)" xlink:href="#U"/><use transform="matrix(0.05,0,0,0.05,20.950000000000003,0)" xlink:href="#U"/><use transform="matrix(0.05,0,0,0.05,30.950000000000003,0)" xlink:href="#T"/><use transform="matrix(0.05,0,0,0.05,41.900000000000006,0)" xlink:href="#bf"/><use transform="matrix(0.05,0,0,0.05,52.85,0)" xlink:href="#Y"/><use transform="matrix(0.05,0,0,0.05,62.85,0)" xlink:href="#am"/><use transform="matrix(0.05,0,0,0.05,72.85000000000001,0)" xlink:href="#bg"/></g></defs></g></svg>